<svg version="1.0" xmlns="http://www.w3.org/2000/svg" viewBox="0 0 540 250" color-interpolation-filters="sRGB" style="margin:auto; scale:1.5"><g fill="#084698" class="icon-text-wrapper icon-svg-group iconsvg"><g transform="translate(40.6 85)" class="iconsvg-imagesvg"><svg width="60" height="60" class="image-svg-svg primary" style="overflow:visible"><svg xmlns="http://www.w3.org/2000/svg" viewBox="0 0 504.123 504.123"><linearGradient id="a" gradientUnits="userSpaceOnUse" x1="-14.218" y1="627.332" x2="-14.218" y2="527.085" gradientTransform="matrix(7.8769 0 0 -7.8769 364.054 4969.67)"><stop offset="0" stop-color="#29d3da"/><stop offset=".519" stop-color="#07f"/><stop offset=".999" stop-color="#064093"/><stop offset="1" stop-color="#084698"/></linearGradient><path d="M252.062 341.929c-49.554 0-89.868-40.314-89.868-89.868s40.314-89.868 89.868-89.868 89.868 40.314 89.868 89.868h-22.567c0-37.108-30.192-67.3-67.3-67.3s-67.3 30.192-67.3 67.3 30.192 67.3 67.3 67.3v22.568z" fill="url(#a)"/><linearGradient id="b" gradientUnits="userSpaceOnUse" x1="-14.218" y1="636.082" x2="-14.218" y2="494.335" gradientTransform="matrix(7.8769 0 0 -7.8769 364.054 4969.67)"><stop offset=".012" stop-color="#e0b386"/><stop offset=".519" stop-color="#da498c"/><stop offset="1" stop-color="#961484"/></linearGradient><path d="M252.062 291.903c-21.969 0-39.834-17.873-39.834-39.841h22.56c0 9.523 7.743 17.266 17.266 17.266 9.523 0 17.274-7.743 17.274-17.266 0-9.523-7.751-17.266-17.274-17.266v-22.567c21.969 0 39.841 17.873 39.841 39.841s-17.865 39.833-39.833 39.833z" fill="url(#b)"/><linearGradient id="c" gradientUnits="userSpaceOnUse" x1="-14.218" y1="636.082" x2="-14.218" y2="494.335" gradientTransform="matrix(7.8769 0 0 -7.8769 364.054 4969.67)"><stop offset=".012" stop-color="#e0b386"/><stop offset=".519" stop-color="#da498c"/><stop offset="1" stop-color="#961484"/></linearGradient><path d="M252.062 400.415V377.84c69.356 0 125.787-56.422 125.787-125.779s-56.43-125.779-125.787-125.779-125.787 56.422-125.787 125.779h-22.567c0-81.81 66.552-148.354 148.354-148.354s148.354 66.544 148.354 148.354-66.553 148.354-148.354 148.354z" fill="url(#c)"/><linearGradient id="d" gradientUnits="userSpaceOnUse" x1="-14.218" y1="627.332" x2="-14.218" y2="527.085" gradientTransform="matrix(7.8769 0 0 -7.8769 364.054 4969.67)"><stop offset="0" stop-color="#29d3da"/><stop offset=".519" stop-color="#07f"/><stop offset=".999" stop-color="#064093"/><stop offset="1" stop-color="#084698"/></linearGradient><path d="M252.062 454.333c-111.521 0-202.264-90.75-202.264-202.271S140.54 49.806 252.062 49.806v22.567c-99.092 0-179.688 80.612-179.688 179.688 0 99.084 80.597 179.688 179.688 179.688 99.084 0 179.688-80.605 179.688-179.688h22.567c.008 111.522-90.734 202.272-202.255 202.272z" fill="url(#d)"/><linearGradient id="e" gradientUnits="userSpaceOnUse" x1="-14.218" y1="636.082" x2="-14.218" y2="494.335" gradientTransform="matrix(7.8769 0 0 -7.8769 364.054 4969.67)"><stop offset=".012" stop-color="#e0b386"/><stop offset=".519" stop-color="#da498c"/><stop offset="1" stop-color="#961484"/></linearGradient><path d="M252.062 504.123C113.073 504.123 0 391.05 0 252.062h22.567c0 126.535 102.951 229.486 229.494 229.486s229.494-102.951 229.494-229.486S378.596 22.575 252.062 22.575V0C391.05 0 504.123 113.073 504.123 252.062S391.05 504.123 252.062 504.123z" fill="url(#e)"/></svg></svg></g><path d="M132.92 104.98q.83 0 1.35.56.52.55.52 1.38v20.11q0 .9-.61 1.51-.6.6-1.5.6-.45 0-.91-.16-.47-.15-.71-.43l-13.56-17.22.89-.55v16.43q0 .83-.53 1.38-.54.55-1.4.55-.83 0-1.34-.55-.52-.55-.52-1.38v-20.12q0-.9.6-1.5.61-.61 1.5-.61.49 0 1 .19.52.19.76.57l13.15 16.77-.59.42v-16.01q0-.83.52-1.38.52-.56 1.38-.56Zm15.22 24.51q-2.93 0-5.09-1.23-2.16-1.23-3.31-3.33-1.16-2.11-1.16-4.76 0-3.11 1.26-5.3t3.3-3.36q2.03-1.18 4.31-1.18 1.76 0 3.33.73 1.57.72 2.78 1.98 1.21 1.26 1.91 2.92.71 1.65.71 3.52-.03.83-.65 1.34-.63.52-1.45.52h-13.19l-1.03-3.45h12.66l-.76.69v-.93q-.06-1-.7-1.8-.64-.79-1.59-1.26-.95-.46-2.02-.46-1.03 0-1.93.27-.9.28-1.55.94-.66.65-1.04 1.76-.38 1.1-.38 2.79 0 1.87.78 3.16.77 1.29 2 1.97 1.22.67 2.6.67 1.28 0 2.04-.21t1.23-.5q.46-.29.84-.5.62-.31 1.17-.31.76 0 1.26.52t.5 1.21q0 .93-.96 1.69-.9.76-2.52 1.33-1.62.57-3.35.57Zm11.87-18.81q1 0 1.69.86l11.53 14.32q.45.55.45 1.24 0 .87-.66 1.49-.65.62-1.45.62-1 0-1.69-.9l-11.52-14.32q-.45-.55-.45-1.24 0-.9.64-1.49.63-.58 1.46-.58Zm.04 18.49q-.69 0-1.37-.53-.67-.54-.67-1.29 0-.69.52-1.32l5.28-6.45 2.07 3.45-4.18 5.28q-.65.86-1.65.86Zm11.49-18.49q.83 0 1.4.57t.57 1.29q0 .35-.11.69-.1.35-.38.66l-5.21 6.35-2.17-3.01 4.24-5.62q.69-.93 1.66-.93Zm6.83.34h8.18q.83 0 1.38.55.55.56.55 1.39 0 .79-.55 1.32-.55.54-1.38.54h-8.18q-.83 0-1.38-.55-.55-.56-.55-1.38 0-.8.55-1.33.55-.54 1.38-.54Zm3.69-4.31q.9 0 1.47.6.57.61.57 1.5v15.36q0 .48.19.79.19.31.52.45t.7.14q.42 0 .76-.15.35-.16.8-.16.48 0 .88.45.39.45.39 1.24 0 .97-1.05 1.59-1.05.62-2.26.62-.72 0-1.6-.12-.88-.12-1.66-.59-.78-.46-1.29-1.43-.52-.97-.52-2.66v-15.53q0-.89.6-1.5.61-.6 1.5-.6Zm16.19 22.78q-1.97 0-3.66-.8-1.69-.79-2.76-2.28-.41-.62-.41-1.2 0-.87.67-1.45.67-.59 1.33-.59.51 0 1.02.31.5.31.91.73.69.62 1.36.88.68.25 1.54.25 1.03 0 1.93-.51.9-.52 1.45-1.38.55-.87.55-1.87v-14.49q0-.9.66-1.5.65-.61 1.52-.61.96 0 1.55.61.59.6.59 1.5v14.49q0 2.11-1.11 3.9-1.1 1.8-2.97 2.9-1.86 1.11-4.17 1.11Zm26.78-18.81q.89 0 1.48.6.59.61.59 1.5v8.77q0 3.66-2.04 5.8-2.03 2.14-5.86 2.14-3.83 0-5.85-2.14-2.02-2.14-2.02-5.8v-8.77q0-.89.58-1.5.59-.6 1.49-.6t1.48.6q.59.61.59 1.5v8.77q0 2.1.93 3.12t2.8 1.02q1.89 0 2.83-1.02.93-1.02.93-3.12v-8.77q0-.89.58-1.5.59-.6 1.49-.6Zm21.5-7.08q.89 0 1.48.59t.59 1.52v21.32q0 .9-.59 1.51-.59.6-1.48.6-.9 0-1.49-.6-.58-.61-.58-1.51v-1.69l.76.31q0 .45-.49 1.09-.48.64-1.31 1.26-.83.62-1.95 1.05-1.12.44-2.43.44-2.38 0-4.32-1.23-1.93-1.23-3.05-3.38-1.12-2.16-1.12-4.95 0-2.83 1.12-4.99t3.02-3.38q1.9-1.23 4.21-1.23 1.48 0 2.73.45 1.24.45 2.15 1.14.92.69 1.42 1.4.5.7.5 1.19l-1.24.45v-9.25q0-.9.58-1.5.59-.61 1.49-.61Zm-6.97 22.09q1.51 0 2.65-.76t1.78-2.07q.64-1.31.64-2.93 0-1.66-.64-2.97-.64-1.31-1.78-2.07-1.14-.76-2.65-.76-1.49 0-2.63.76t-1.77 2.07q-.64 1.31-.64 2.97 0 1.62.64 2.93.63 1.31 1.77 2.07 1.14.76 2.63.76Zm21.01-15.36q1.45 0 2.66.45 1.21.45 2.09 1.14.88.69 1.38 1.4.5.7.5 1.19l-.9.45v-2.52q0-.9.59-1.5.58-.61 1.48-.61t1.49.59q.58.59.58 1.52v15.35q0 3.01-1.29 4.82-1.3 1.81-3.4 2.62-2.11.81-4.52.81-.69 0-1.8-.17-1.1-.17-2.1-.41-1-.25-1.52-.45-1.04-.45-1.43-1.12-.4-.68-.16-1.44.31-1 1-1.36.69-.36 1.45-.09.35.11 1.14.42.8.31 1.74.57.95.26 1.68.26 2.59 0 3.83-1.04 1.24-1.03 1.24-2.86v-3.01l.41.31q0 .45-.46 1.09-.47.64-1.28 1.26t-1.91 1.05q-1.11.44-2.35.44-2.45 0-4.42-1.23-1.96-1.23-3.1-3.38-1.14-2.16-1.14-4.95 0-2.83 1.14-4.99t3.07-3.38q1.93-1.23 4.31-1.23Zm.66 3.8q-1.56 0-2.73.76t-1.83 2.07q-.65 1.31-.65 2.97 0 1.62.65 2.93.66 1.31 1.83 2.07 1.17.76 2.73.76 1.59 0 2.76-.76 1.17-.76 1.83-2.07.65-1.31.65-2.93 0-1.66-.65-2.97-.66-1.31-1.83-2.07-1.17-.76-2.76-.76Zm21.53 15.36q-2.93 0-5.09-1.23-2.16-1.23-3.31-3.33-1.16-2.11-1.16-4.76 0-3.11 1.26-5.3t3.3-3.36q2.03-1.18 4.31-1.18 1.76 0 3.33.73 1.57.72 2.78 1.98 1.21 1.26 1.91 2.92.71 1.65.71 3.52-.03.83-.65 1.34-.62.52-1.45.52h-13.19l-1.03-3.45h12.66l-.76.69v-.93q-.06-1-.7-1.8-.64-.79-1.59-1.26-.95-.46-2.02-.46-1.03 0-1.93.27-.9.28-1.55.94-.66.65-1.04 1.76-.38 1.1-.38 2.79 0 1.87.78 3.16.77 1.29 2 1.97 1.22.67 2.6.67 1.28 0 2.04-.21t1.23-.5q.46-.29.84-.5.62-.31 1.17-.31.76 0 1.26.52t.5 1.21q0 .93-.96 1.69-.9.76-2.52 1.33-1.62.57-3.35.57Z" data-gra="path-name" class="tp-name iconsvg-namesvg"/></g></svg>